HIERARCHY
ROOT hip
{
  OFFSET 0 0 0
  CHANNELS 6 Xposition Yposition Zposition Zrotation Yrotation Xrotation
  JOINT abdomen
  {
    OFFSET 0 20.6881 -0.73152
    CHANNELS 3 Zrotation Xrotation Yrotation
    JOINT chest
    {
      OFFSET 0 11.7043 -0.48768
      CHANNELS 3 Zrotation Xrotation Yrotation
      JOINT neck
      {
        OFFSET 0 22.1894 -2.19456
        CHANNELS 3 Zrotation Xrotation Yrotation
        JOINT head
        {
          OFFSET -0.24384 7.07133 1.2192
          CHANNELS 3 Zrotation Xrotation Yrotation
          JOINT leftEye
          {
            OFFSET 4.14528 8.04674 8.04672
            CHANNELS 3 Zrotation Xrotation Yrotation
            End Site
            {
              OFFSET 1 0 0
            }
          }
          JOINT rightEye
          {
            OFFSET -3.6576 8.04674 8.04672
            CHANNELS 3 Zrotation Xrotation Yrotation
            End Site
            {
              OFFSET 1 0 0
            }
          }
        }
      }
      JOINT rCollar
      {
        OFFSET -2.68224 19.2634 -4.8768
        CHANNELS 3 Zrotation Xrotation Yrotation
        JOINT rShldr
        {
          OFFSET -8.77824 -1.95073 1.46304
          CHANNELS 3 Zrotation Xrotation Yrotation
          JOINT rForeArm
          {
            OFFSET -28.1742 -1.7115 0.48768
            CHANNELS 3 Zrotation Xrotation Yrotation
            JOINT rHand
            {
              OFFSET -22.5879 0.773209 7.07136
              CHANNELS 3 Zrotation Xrotation Yrotation
              JOINT rThumb1
              {
                OFFSET -1.2192 -0.487915 3.41376
                CHANNELS 3 Zrotation Xrotation Yrotation
                JOINT rThumb2
                {
                  OFFSET -3.37035 -0.52449 3.41376
                  CHANNELS 3 Zrotation Xrotation Yrotation
                  End Site
                  {
                    OFFSET -1.78271 -1.18214 1.43049
                  }
                }
              }
              JOINT rIndex1
              {
                OFFSET -7.75947 0.938293 5.60832
                CHANNELS 3 Zrotation Xrotation Yrotation
                JOINT rIndex2
                {
                  OFFSET -2.54057 -0.884171 1.56538
                  CHANNELS 3 Zrotation Xrotation Yrotation
                  End Site
                  {
                    OFFSET -1.62519 -0.234802 1.16502
                  }
                }
              }
              JOINT rMid1
              {
                OFFSET -8.24714 1.18213 3.41376
                CHANNELS 3 Zrotation Xrotation Yrotation
                JOINT rMid2
                {
                  OFFSET -3.10165 -0.590103 1.0647
                  CHANNELS 3 Zrotation Xrotation Yrotation
                  End Site
                  {
                    OFFSET -2.48547 -0.328903 0.83742
                  }
                }
              }
              JOINT rRing1
              {
                OFFSET -8.82822 0.546677 1.51678
                CHANNELS 3 Zrotation Xrotation Yrotation
                JOINT rRing2
                {
                  OFFSET -2.60934 -0.819778 -0.0198488
                  CHANNELS 3 Zrotation Xrotation Yrotation
                  End Site
                  {
                    OFFSET -2.33842 -0.294052 0.168128
                  }
                }
              }
              JOINT rPinky1
              {
                OFFSET -8.27202 -0.0477905 -0.4584
                CHANNELS 3 Zrotation Xrotation Yrotation
                JOINT rPinky2
                {
                  OFFSET -1.82734 -0.647385 -0.700984
                  CHANNELS 3 Zrotation Xrotation Yrotation
                  End Site
                  {
                    OFFSET -1.69225 -0.51767 -0.607171
                  }
                }
              }
            }
          }
        }
      }
      JOINT lCollar
      {
        OFFSET 2.68224 19.2634 -4.8768
        CHANNELS 3 Zrotation Xrotation Yrotation
        JOINT lShldr
        {
          OFFSET 8.77824 -1.95073 1.46304
          CHANNELS 3 Zrotation Xrotation Yrotation
          JOINT lForeArm
          {
            OFFSET 28.1742 -1.7115 0.48768
            CHANNELS 3 Zrotation Xrotation Yrotation
            JOINT lHand
            {
              OFFSET 22.5879 0.773209 7.07136
              CHANNELS 3 Zrotation Xrotation Yrotation
              JOINT lThumb1
              {
                OFFSET 1.2192 -0.487915 3.41376
                CHANNELS 3 Zrotation Xrotation Yrotation
                JOINT lThumb2
                {
                  OFFSET 3.37035 -0.52449 3.41376
                  CHANNELS 3 Zrotation Xrotation Yrotation
                  End Site
                  {
                    OFFSET 1.78271 -1.18214 1.43049
                  }
                }
              }
              JOINT lIndex1
              {
                OFFSET 7.75947 0.938293 5.60832
                CHANNELS 3 Zrotation Xrotation Yrotation
                JOINT lIndex2
                {
                  OFFSET 2.54057 -0.884171 1.56538
                  CHANNELS 3 Zrotation Xrotation Yrotation
                  End Site
                  {
                    OFFSET 1.62519 -0.234802 1.16502
                  }
                }
              }
              JOINT lMid1
              {
                OFFSET 8.24714 1.18213 3.41376
                CHANNELS 3 Zrotation Xrotation Yrotation
                JOINT lMid2
                {
                  OFFSET 3.10165 -0.590103 1.0647
                  CHANNELS 3 Zrotation Xrotation Yrotation
                  End Site
                  {
                    OFFSET 2.48547 -0.328903 0.83742
                  }
                }
              }
              JOINT lRing1
              {
                OFFSET 8.82822 0.546677 1.51678
                CHANNELS 3 Zrotation Xrotation Yrotation
                JOINT lRing2
                {
                  OFFSET 2.60934 -0.819778 -0.0198488
                  CHANNELS 3 Zrotation Xrotation Yrotation
                  End Site
                  {
                    OFFSET 2.33842 -0.294052 0.168128
                  }
                }
              }
              JOINT lPinky1
              {
                OFFSET 8.27202 -0.0477905 -0.4584
                CHANNELS 3 Zrotation Xrotation Yrotation
                JOINT lPinky2
                {
                  OFFSET 1.82734 -0.647385 -0.700984
                  CHANNELS 3 Zrotation Xrotation Yrotation
                  End Site
                  {
                    OFFSET 1.69225 -0.51767 -0.607171
                  }
                }
              }
            }
          }
        }
      }
    }
  }
  JOINT rButtock
  {
    OFFSET -8.77824 4.35084 1.2192
    CHANNELS 3 Zrotation Xrotation Yrotation
    JOINT rThigh
    {
      OFFSET 0 -1.70687 -2.19456
      CHANNELS 3 Zrotation Xrotation Yrotation
      JOINT rShin
      {
        OFFSET 0 -36.8199 0.73152
        CHANNELS 3 Zrotation Xrotation Yrotation
        JOINT rFoot
        {
          OFFSET 0.73152 -45.1104 -5.12064
          CHANNELS 3 Zrotation Xrotation Yrotation
          End Site
          {
            OFFSET -1.1221 -3.69964 12.103
          }
        }
      }
    }
  }
  JOINT lButtock
  {
    OFFSET 8.77824 4.35084 1.2192
    CHANNELS 3 Zrotation Xrotation Yrotation
    JOINT lThigh
    {
      OFFSET 0 -1.70687 -2.19456
      CHANNELS 3 Zrotation Xrotation Yrotation
      JOINT lShin
      {
        OFFSET 0 -36.8199 0.73152
        CHANNELS 3 Zrotation Xrotation Yrotation
        JOINT lFoot
        {
          OFFSET -0.73152 -45.1104 -5.12064
          CHANNELS 3 Zrotation Xrotation Yrotation
          End Site
          {
            OFFSET 1.1221 -3.69964 12.103
          }
        }
      }
    }
  }
}
MOTION
Frames:	5
Frame Time:	0.03333
70.6681 70.3148 -12.1189 164.712493 65.765037 163.46075 -10.931789 4.560727 -85.363285 4.749213 2.711777 85.029533 2.976538 31.119239 155.320618 -12.08014 35.248124 -177.703482 -0.000532 0.0 -0.002801 -0.000532 0.0 -0.002801 -82.876999 68.301134 86.000693 -98.985208 32.96841 59.804714 8.712632 -54.599315 -102.505244 -151.066013 24.968014 132.326226 -2.814487 2.753881 0.499091 -106.473647 5.315405 97.140794 159.645453 -69.974145 102.400408 16.788933 -1.399458 -7.957862 -0.0574 0.167869 0.032601 -88.697068 64.084129 80.425467 -74.841097 72.960809 92.82805 -81.204441 83.254839 90.13556 16.819031 58.946148 12.654013 -154.211817 31.968566 -147.016425 159.221669 -48.725226 -170.566382 92.600501 -17.759727 71.947691 75.387109 -26.076273 46.139482 -8.283198 6.346125 -12.943822 0.441202 0.435469 -0.06906 -23.872943 -38.607486 15.67901 10.57229 15.012955 -6.865836 168.440939 -20.789865 -109.706834 86.2965 60.960653 -77.856674 168.786935 -22.21579 -144.124487 145.101111 -1.523428 178.650472 157.193741 45.539041 -175.524196 157.332527 57.246686 150.509141 141.04853 -7.230339 136.416111 -0.000197 -0.000178 0.0 -32.525526 -52.126923 -38.933103 -32.874892 58.587347 -115.970703 -88.80678 57.481262 -175.831413 -7.4e-05 -0.000178 9.6e-05 -3.262517 -1.261918 80.763001 60.669038 11.059575 57.908625 171.158856 25.782319 87.894239
71.5361 70.2739 -12.023 163.197515 65.905164 162.356956 -14.479359 6.500996 0.0 5.685238 -6.842237 0.351977 -12.441525 17.416194 -45.36829 23.709558 -7.759147 23.039159 -0.000202 0.0 -0.000436 -0.000202 0.0 -0.000436 -155.503876 -3.514455 161.838803 -70.994216 -31.943375 -46.188388 -179.948507 -4.273639 -106.94238 -13.413944 -33.304073 -8.431338 -169.149382 -6.830247 89.916387 143.555734 -46.825809 95.858346 -0.327113 0.530049 0.186092 -177.879615 -34.333459 106.358089 -111.804558 56.305975 102.278369 -36.774779 56.162574 31.4406 -0.008564 3.64089 1.144135 2.861934 45.201403 8.968314 -126.797971 -26.620536 -124.513865 -52.941371 -51.918181 -53.890121 155.54859 -3.804314 -161.899774 67.139853 13.339361 19.702508 -93.192276 22.610793 125.163522 -168.498294 8.882566 -160.659044 168.699594 -6.378228 -89.897645 27.711454 -32.779534 -5.56865 142.228412 -0.988425 -117.05773 -45.172826 -55.107017 -1.427871 -6.531876 -20.415124 2.718209 4.791032 20.787304 -4.267008 145.117292 0.185299 179.186957 154.145586 -12.72375 177.475261 125.482777 -28.27342 123.237112 147.56679 14.09924 142.580645 -179.99454 75.749127 -0.004492 159.106877 16.974596 5.945978 6.02462 59.18324 93.347109 58.749529 86.360579 -140.589834 0.000767 -0.00105 0.00115 -2.635064 0.85671 -0.012956 -11.232767 59.07777 172.303165 151.170922 40.301129 107.715655
72.27080000000001 70.123 -11.9495 162.491656 65.991914 161.945857 -12.656577 3.294903 -104.356214 3.054531 4.151172 104.016252 -7.064004 13.027991 -8.681788 8.372363 -16.688355 -14.830545 -0.000905 0.0 -0.002064 -0.000905 0.0 -0.002064 -142.972937 39.43141 147.389709 -59.444403 13.15008 4.635005 -1.874125 -32.912135 -112.597914 -154.014263 19.517193 135.636697 11.509125 -11.487058 -0.621989 -134.17006 -28.081201 120.734607 -151.3538 -17.158071 121.133478 77.378067 -68.322833 26.212563 6.533863 -20.414832 -2.717256 2.599534 1.638896 0.212823 -145.119824 0.310169 -179.225584 11.423474 17.995891 -6.908572 32.01582 83.320449 6.231479 0.348859 -2.651444 -1.842698 -0.13276 -0.807209 0.178359 85.152856 -22.833468 -157.902176 152.559001 -37.672369 119.751036 6.770658 56.099337 -10.755917 4.166712 4.057255 -0.78454 -43.020063 -61.784905 13.874059 26.827716 30.231933 -19.60611 -7.694898 0.307515 1.375661 -14.567002 -44.053021 2.825523 7.473501 26.161531 -6.087486 145.099877 -1.52153 178.649923 152.270086 76.083802 -167.135606 147.904565 21.202439 144.188757 25.840837 -40.227047 26.992981 8.8e-05 0.00054 -0.000114 -34.652318 -54.84628 -130.109558 -60.913452 -19.75688 12.116033 135.649294 35.876456 -44.463567 -179.998049 75.749102 -0.001335 163.417389 75.96406 98.042758 58.795822 12.799805 85.822268 -119.380159 -38.029658 175.680029
72.9135 69.8882 -11.8858 161.702722 66.238061 161.505766 -15.34983 5.963691 0.982126 5.534815 -7.047503 -0.595574 -14.1778 21.70477 -74.794642 28.576007 5.634636 50.201602 -0.00118 0.0 -0.003398 -0.00118 0.0 -0.003398 -13.3727 41.838064 15.176774 79.02174 -15.491181 83.216967 179.025791 34.438566 69.155756 -149.227958 27.249738 130.711308 -95.360642 37.750304 54.682777 -71.192507 -2.84123 53.802283 96.932247 -76.023841 47.326055 -150.957142 -5.370531 115.687962 -36.036804 51.72228 29.834131 3.333279 0.217946 0.096289 -71.926895 72.972536 89.772723 -73.400727 -82.484378 -90.497451 -113.838614 -39.285136 -111.847979 -127.448564 -28.087522 -126.002723 159.220845 -48.028468 -170.415213 77.310211 -11.112433 67.944348 -40.436506 48.809242 107.749041 -141.789333 -43.423267 -139.447253 -6.275109 -6.263362 0.626444 138.961374 -42.104458 -122.57611 150.887917 -16.291324 -120.977363 -145.122382 -67.145938 -87.089304 -173.119537 -66.297397 -137.61018 2.213579 14.245183 -2.826825 -0.004526 1.771274 -0.557223 148.358672 -76.774737 171.083948 23.39061 -36.349408 22.493664 -10.290807 22.639471 -5.234118 -179.990404 75.748876 -0.008467 159.031128 15.309021 0.0 -8.999308 55.658907 42.7504 94.191748 -62.504807 0.294319 -179.995864 75.750701 -0.00283 166.185113 77.791455 14.121895 -14.736528 45.410831 -38.18483 168.721423 50.010787 -70.030299
73.4289 69.6109 -11.9169 161.038138 66.375109 161.117231 -15.799734 1.085254 180.0 -5.612573 2.391489 179.850861 4.33027 15.140799 57.640748 -19.677955 -5.499009 -83.971211 -0.003729 -0.0 0.000865 0.001942 0.0 4.6e-05 0.03498 -0.209488 -0.045838 -101.820485 -7.643197 134.734308 -179.056802 23.57722 -100.280997 -13.380251 -33.914288 -8.579606 17.492422 -17.281368 -0.030275 -150.817129 -73.729971 136.197083 -140.763407 1.380438 116.22873 -69.971898 57.1778 51.424183 -108.909411 57.216472 99.527517 -172.026244 -31.386236 143.835222 -145.119069 0.185573 -179.186384 -6.950985 -61.109743 -27.911725 5.661288 16.872405 5.088591 -21.69872 -38.958697 -22.175889 157.878821 -65.637687 -175.446642 75.505566 -10.407439 86.077639 100.960285 -45.481597 81.216742 -2.361102 28.29879 -11.258995 168.110859 -5.789139 -89.87018 -15.021342 -58.82104 -17.17168 138.49307 4.895937 -114.864354 154.433604 3.300656 -117.440025 125.643171 49.839556 -115.273756 11.60891 33.698144 -9.562527 -0.000236 -0.018468 0.006256 156.480092 -25.092895 -174.787985 148.557985 23.531777 144.736139 136.992221 -14.247468 133.217369 -0.003277 0.000831 -0.001639 -36.292939 -55.278979 -81.080314 -66.558568 32.886062 -87.180707 -100.176811 48.469632 -164.74028 0.000718 0.000141 -0.000923 -4.099199 1.724638 90.975174 58.525924 6.008767 88.073216 146.878124 25.520096 121.99217
